<svg version="1.1" xmlns="http://www.w3.org/2000/svg" viewBox="0 0 2500.2468872070303 689.7284647623696" width="2500.2468872070303" height="689.7284647623696">
  <!-- svg-source:excalidraw -->
  
  <defs>
    <style class="style-fonts">
      @font-face {
        font-family: "Virgil";
        src: url("https://excalidraw.com/Virgil.woff2");
      }
      @font-face {
        font-family: "Cascadia";
        src: url("https://excalidraw.com/Cascadia.woff2");
      }
    </style>
    
  </defs>
  <g stroke-linecap="round" transform="translate(534.8640950520833 10) rotate(0 285.0370178222656 37.925933837890625)"><path d="M18.96 0 C200.01 3.63, 384.71 3.81, 551.11 0 C564.21 -1.45, 572.54 7.75, 570.07 18.96 C568.36 28.9, 571.04 35.34, 570.07 56.89 C566.74 66.39, 566.98 78.83, 551.11 75.85 C365.89 75.23, 181.94 72.88, 18.96 75.85 C2.96 75.66, -0.54 71.1, 0 56.89 C2.61 48.42, -2.31 33.33, 0 18.96 C2.87 9.04, 3.51 -0.57, 18.96 0" stroke="none" stroke-width="0" fill="#ebfbee"></path><path d="M18.96 0 C148.1 0.21, 275.29 0.74, 551.11 0 M18.96 0 C214.63 -1.85, 410.45 -2.04, 551.11 0 M551.11 0 C565.55 1.21, 571.93 4.69, 570.07 18.96 M551.11 0 C562.93 1.04, 568.16 4.64, 570.07 18.96 M570.07 18.96 C570.72 33.26, 569.35 46.24, 570.07 56.89 M570.07 18.96 C569.55 28.31, 569.37 35.59, 570.07 56.89 M570.07 56.89 C569.95 71.06, 565.14 73.97, 551.11 75.85 M570.07 56.89 C569.55 70.93, 562.09 75.31, 551.11 75.85 M551.11 75.85 C440.41 76.84, 330.72 77.46, 18.96 75.85 M551.11 75.85 C357.51 77.56, 164.04 77.52, 18.96 75.85 M18.96 75.85 C5.8 77.03, -1.86 71.07, 0 56.89 M18.96 75.85 C4.28 73.97, 0.31 70.63, 0 56.89 M0 56.89 C0.33 44.31, -1.18 29.06, 0 18.96 M0 56.89 C-0.76 44.69, 0.52 33.46, 0 18.96 M0 18.96 C1.14 7.68, 8 0.27, 18.96 0 M0 18.96 C-2.29 6.68, 5.62 1.15, 18.96 0" stroke="#1e1e1e" stroke-width="2" fill="none"></path></g><g transform="translate(762.679089864095 25.425933837890625) rotate(0 57.222023010253906 22.5)"><text x="57.222023010253906" y="0" font-family="Virgil, Segoe UI Emoji" font-size="36px" fill="#1e1e1e" text-anchor="middle" style="white-space: pre;" direction="ltr" dominant-baseline="text-before-edge">PROXY</text></g><g stroke-linecap="round" transform="translate(602.4197285970051 273.111104329427) rotate(0 224.00001525878906 200.29627990722656)"><path d="M32 0 C180.93 1.95, 328.2 1.93, 416 0 C437.27 3.01, 449.64 12.18, 448 32 C449.07 134.88, 449.77 233.77, 448 368.59 C448.37 392.8, 440.54 398.42, 416 400.59 C300.39 402.94, 182.47 401.18, 32 400.59 C12.88 402.61, 2.67 390.94, 0 368.59 C-0.95 285.12, -1.27 204.09, 0 32 C3.35 12.26, 8.91 -2.31, 32 0" stroke="none" stroke-width="0" fill="#ebfbee"></path><path d="M32 0 C146.12 2.25, 259.75 1.35, 416 0 M32 0 C129.51 1.66, 226.73 0.8, 416 0 M416 0 C439.11 1.96, 448.36 12.49, 448 32 M416 0 C435.59 1.88, 446.74 11.39, 448 32 M448 32 C448.37 112.97, 449.19 192.62, 448 368.59 M448 32 C447.46 146.26, 448.71 259.15, 448 368.59 M448 368.59 C447.59 391.21, 438.35 400.03, 416 400.59 M448 368.59 C448.88 388.98, 439.1 399.1, 416 400.59 M416 400.59 C271.3 401.77, 124.91 402.37, 32 400.59 M416 400.59 C280.04 400.36, 144.22 400.07, 32 400.59 M32 400.59 C9.39 399.48, 1.2 391.1, 0 368.59 M32 400.59 C8.67 400.01, 1.1 390.69, 0 368.59 M0 368.59 C-0.81 250.74, 0.06 132.88, 0 32 M0 368.59 C0.48 288.45, 0.11 208.4, 0 32 M0 32 C-0.78 11.14, 12.63 -0.83, 32 0 M0 32 C1.33 9.6, 11.33 1.37, 32 0" stroke="#1e1e1e" stroke-width="2" fill="none"></path></g><g transform="translate(688.4856923421223 450.90738423665357) rotate(0 137.93405151367188 22.5)"><text x="137.93405151367188" y="0" font-family="Virgil, Segoe UI Emoji" font-size="36px" fill="#1e1e1e" text-anchor="middle" style="white-space: pre;" direction="ltr" dominant-baseline="text-before-edge">Device Manager</text></g><g stroke-linecap="round" transform="translate(1457.7901051839192 270.5926259358723) rotate(0 224.00001525878906 200.29627990722656)"><path d="M32 0 C148.85 3.51, 268.53 2.32, 416 0 C436.11 -2.65, 451.33 9.81, 448 32 C452.7 145.37, 448.68 254.81, 448 368.59 C449.17 391.25, 436.94 400.33, 416 400.59 C316.18 401.02, 218.53 401.32, 32 400.59 C8.4 403.15, -1.15 390.07, 0 368.59 C0.47 252.74, 2.85 134.74, 0 32 C-2.26 10.2, 9.38 -2.79, 32 0" stroke="none" stroke-width="0" fill="#ebfbee"></path><path d="M32 0 C107.98 -1.43, 186.33 -1.49, 416 0 M32 0 C166.35 0.65, 300.15 0.17, 416 0 M416 0 C437.05 -1.03, 447.82 11.66, 448 32 M416 0 C435.13 -0.78, 450.2 10.28, 448 32 M448 32 C447.59 125.59, 446.44 221.54, 448 368.59 M448 32 C446.25 149.53, 446.88 266, 448 368.59 M448 368.59 C448.74 389.54, 438.77 401.28, 416 400.59 M448 368.59 C449.51 391.85, 435.32 402.74, 416 400.59 M416 400.59 C301.38 399.28, 189.14 398.78, 32 400.59 M416 400.59 C270.09 399.51, 123.71 400.01, 32 400.59 M32 400.59 C12 401.99, -1.75 388.12, 0 368.59 M32 400.59 C9.17 402.72, 0.77 391.82, 0 368.59 M0 368.59 C0.73 253.91, 0.67 140.14, 0 32 M0 368.59 C0.62 272.15, 0.15 176.37, 0 32 M0 32 C0.46 9.05, 9.85 1.16, 32 0 M0 32 C-1.16 12.11, 10.19 -1.98, 32 0" stroke="#1e1e1e" stroke-width="2" fill="none"></path></g><g transform="translate(1567.5800908406575 448.3889058430989) rotate(0 114.21002960205078 22.5)"><text x="114.21002960205078" y="0" font-family="Virgil, Segoe UI Emoji" font-size="36px" fill="#1e1e1e" text-anchor="middle" style="white-space: pre;" direction="ltr" dominant-baseline="text-before-edge">Maps Service</text></g><g stroke-linecap="round" transform="translate(841.8271077473958 543.3333638509114) rotate(0 90.0740966796875 54.518524169921875)"><path d="M27.26 0 C54.23 -1.32, 85.6 0.38, 152.89 0 C172.32 -2.77, 179.82 11.27, 180.15 27.26 C178.72 42.84, 183.56 57.74, 180.15 81.78 C180.1 99.93, 172.5 106.03, 152.89 109.04 C128.53 110, 100.47 108.59, 27.26 109.04 C5.97 108.29, 0.33 97.03, 0 81.78 C0.42 64.12, 1.08 51.87, 0 27.26 C1.1 8.49, 10.24 -1.96, 27.26 0" stroke="none" stroke-width="0" fill="#ffec99"></path><path d="M27.26 0 C60.37 -2.22, 95.4 -2.31, 152.89 0 M27.26 0 C71.47 -0.82, 116.41 -1.19, 152.89 0 M152.89 0 C171.5 -1.05, 180.07 7.52, 180.15 27.26 M152.89 0 C169.09 0.67, 179.88 10.77, 180.15 27.26 M180.15 27.26 C178.89 40.93, 181.81 57.87, 180.15 81.78 M180.15 27.26 C181.09 48.23, 180.95 69.58, 180.15 81.78 M180.15 81.78 C181.15 99.72, 170.82 109.92, 152.89 109.04 M180.15 81.78 C181.49 100.8, 172.85 109.31, 152.89 109.04 M152.89 109.04 C109.08 107.12, 62.42 107.16, 27.26 109.04 M152.89 109.04 C115.68 107.85, 77.59 108.9, 27.26 109.04 M27.26 109.04 C8.11 108.28, 1.09 101.75, 0 81.78 M27.26 109.04 C9.61 109.76, 2.17 98.91, 0 81.78 M0 81.78 C0.49 65.66, 1.18 52.12, 0 27.26 M0 81.78 C-0.08 68.83, 0.38 55.79, 0 27.26 M0 27.26 C-1.68 8.31, 8.96 0.37, 27.26 0 M0 27.26 C0.39 7.52, 10.62 1.71, 27.26 0" stroke="#1e1e1e" stroke-width="2" fill="none"></path></g><g transform="translate(876.4791844685872 575.3518880208333) rotate(0 55.422019958496094 22.5)"><text x="55.422019958496094" y="0" font-family="Virgil, Segoe UI Emoji" font-size="36px" fill="#1e1e1e" text-anchor="middle" style="white-space: pre;" direction="ltr" dominant-baseline="text-before-edge">MQTT</text></g><g stroke-linecap="round" transform="translate(1693.6418050130208 541.7408040364583) rotate(0 96.5926513671875 54.518524169921875)"><path d="M27.26 0 C84.99 4.63, 135.34 1.63, 165.93 0 C182.19 2.61, 194.63 10.52, 193.19 27.26 C193.84 45.61, 192.06 71.43, 193.19 81.78 C191.56 98.74, 184.99 110.75, 165.93 109.04 C111.54 109.08, 61.68 112.38, 27.26 109.04 C8.23 108.36, 0.38 98.51, 0 81.78 C0.71 69.12, -0.51 61.38, 0 27.26 C0.25 10.76, 8.05 -1.84, 27.26 0" stroke="none" stroke-width="0" fill="#ffec99"></path><path d="M27.26 0 C67.08 0.91, 107.49 -0.83, 165.93 0 M27.26 0 C77.62 1.72, 128.32 1.06, 165.93 0 M165.93 0 C184.15 1.18, 193.89 7.55, 193.19 27.26 M165.93 0 C183.89 1.4, 193.47 10.18, 193.19 27.26 M193.19 27.26 C194.54 39.64, 192.87 55.98, 193.19 81.78 M193.19 27.26 C193.61 46.29, 193.33 64.27, 193.19 81.78 M193.19 81.78 C193.51 99.07, 182.37 108.62, 165.93 109.04 M193.19 81.78 C193.4 98.08, 183.98 109.15, 165.93 109.04 M165.93 109.04 C135.12 109.68, 103.67 108.1, 27.26 109.04 M165.93 109.04 C119.84 110.08, 73.2 109.88, 27.26 109.04 M27.26 109.04 C10.13 107.65, 0.74 101.28, 0 81.78 M27.26 109.04 C7.65 110.29, 1.71 99.94, 0 81.78 M0 81.78 C-1.11 67.24, 0.66 52.75, 0 27.26 M0 81.78 C-0.01 65.28, 0.29 50.27, 0 27.26 M0 27.26 C0.78 10.91, 10.24 -1.02, 27.26 0 M0 27.26 C0.99 11.28, 9.73 -1.7, 27.26 0" stroke="#1e1e1e" stroke-width="2" fill="none"></path></g><g transform="translate(1699.8744099934895 573.7593282063801) rotate(0 90.36004638671875 22.5)"><text x="90.36004638671875" y="0" font-family="Virgil, Segoe UI Emoji" font-size="36px" fill="#1e1e1e" text-anchor="middle" style="white-space: pre;" direction="ltr" dominant-baseline="text-before-edge">SurrealDB</text></g><g stroke-linecap="round" transform="translate(10 430.839609781901) rotate(0 169.87655639648435 124.44442749023432)"><path d="M32 0 C104.85 3.67, 181.72 4.27, 307.75 0 C332.46 -2.9, 340 13.1, 339.75 32 C336.85 69.51, 339.28 110.33, 339.75 216.89 C342.34 237.16, 327.32 250.05, 307.75 248.89 C216.48 253.35, 126.18 254.49, 32 248.89 C9.51 249.43, -0.96 237.86, 0 216.89 C-3.5 148.37, 0.95 79.65, 0 32 C0.22 9.92, 11.27 3.14, 32 0" stroke="none" stroke-width="0" fill="#fff5f5"></path><path d="M32 0 C102.97 0.77, 174.62 2.9, 307.75 0 M32 0 C107.28 0.74, 182.41 1.82, 307.75 0 M307.75 0 C329.17 -1.9, 341.01 9.58, 339.75 32 M307.75 0 C328.47 -2.22, 341.57 10.91, 339.75 32 M339.75 32 C341.21 93.49, 341.18 155.84, 339.75 216.89 M339.75 32 C341.47 94.78, 340.69 157.93, 339.75 216.89 M339.75 216.89 C338.39 236.63, 329.72 247.73, 307.75 248.89 M339.75 216.89 C339.2 238.83, 327.22 248.83, 307.75 248.89 M307.75 248.89 C235.03 246.18, 161.37 247.58, 32 248.89 M307.75 248.89 C207.99 249.8, 107.3 249.07, 32 248.89 M32 248.89 C9.92 248.01, 0.99 238.16, 0 216.89 M32 248.89 C8.41 250.07, -0.78 237.16, 0 216.89 M0 216.89 C2.41 146.22, -0.97 76.39, 0 32 M0 216.89 C1.07 172.02, 1.52 126.5, 0 32 M0 32 C-0.32 11.32, 12.43 0.48, 32 0 M0 32 C-2.28 10.47, 11.65 -0.02, 32 0" stroke="#1e1e1e" stroke-width="2" fill="none"></path></g><g transform="translate(56.73851013183591 532.7840372721353) rotate(0 123.13804626464844 22.5)"><text x="123.13804626464844" y="0" font-family="Virgil, Segoe UI Emoji" font-size="36px" fill="#1e1e1e" text-anchor="middle" style="white-space: pre;" direction="ltr" dominant-baseline="text-before-edge">Cockroach DB</text></g><g stroke-linecap="round" transform="translate(2150.493774414062 424.54327392578136) rotate(0 169.87655639648426 124.44442749023432)"><path d="M32 0 C88.32 2.06, 151.02 -0.51, 307.75 0 C326.72 -1.9, 342.48 13.65, 339.75 32 C337.83 105.67, 340.09 177.47, 339.75 216.89 C338.21 235.81, 328.97 250.72, 307.75 248.89 C228.59 250.22, 153.31 251.9, 32 248.89 C9.15 248.39, -1.52 237.32, 0 216.89 C-1.52 163.19, -4.23 111.09, 0 32 C3.5 11.18, 9.01 -2.76, 32 0" stroke="none" stroke-width="0" fill="#fff5f5"></path><path d="M32 0 C110.21 -2.63, 187.02 -1.27, 307.75 0 M32 0 C127.89 -0.55, 222.18 -0.59, 307.75 0 M307.75 0 C329.76 1.79, 339.26 8.96, 339.75 32 M307.75 0 C330.42 0.4, 340.13 12.6, 339.75 32 M339.75 32 C337.67 77.57, 337.02 125.51, 339.75 216.89 M339.75 32 C339.07 74.48, 339.48 114.87, 339.75 216.89 M339.75 216.89 C339.9 238.47, 329.28 249.13, 307.75 248.89 M339.75 216.89 C338.61 239.24, 328.98 250.47, 307.75 248.89 M307.75 248.89 C246.39 248.22, 186.67 248.94, 32 248.89 M307.75 248.89 C209.04 248.35, 108.43 248.24, 32 248.89 M32 248.89 C12.64 249.56, 0 238.7, 0 216.89 M32 248.89 C10.06 246.61, 2.18 236.31, 0 216.89 M0 216.89 C0.89 145.91, 0.06 71.11, 0 32 M0 216.89 C1.29 171.88, -0.66 124.97, 0 32 M0 32 C-0.67 12.49, 9.87 0.25, 32 0 M0 32 C-0.29 10.24, 8.74 -0.93, 32 0" stroke="#1e1e1e" stroke-width="2" fill="none"></path></g><g transform="translate(2220.1103057861324 526.4877014160156) rotate(0 100.26002502441395 22.5)"><text x="100.26002502441406" y="0" font-family="Virgil, Segoe UI Emoji" font-size="36px" fill="#1e1e1e" text-anchor="middle" style="white-space: pre;" direction="ltr" dominant-baseline="text-before-edge">Google API</text></g><g stroke-linecap="round"><g transform="translate(357.6542663574218 559.2345886230468) rotate(0 119.47589093543534 0.9660609413779753)"><path d="M-0.07 -0.12 C39.74 0.22, 199.16 1.69, 239.02 2.05 M0.17 0.15 C39.95 0.44, 199.1 1.55, 238.91 1.82" stroke="#1e1e1e" stroke-width="2" fill="none"></path></g><g transform="translate(357.6542663574218 559.2345886230468) rotate(0 119.47589093543534 0.9660609413779753)"><path d="M28.21 -10.12 C16.76 -6.15, 5.89 -2.05, -0.07 -0.12 M28.21 -10.12 C18.37 -6.77, 8.32 -3.15, -0.07 -0.12" stroke="#1e1e1e" stroke-width="2" fill="none"></path></g><g transform="translate(357.6542663574218 559.2345886230468) rotate(0 119.47589093543534 0.9660609413779753)"><path d="M28.03 10.4 C16.64 6.22, 5.85 2.17, -0.07 -0.12 M28.03 10.4 C18.27 6.57, 8.28 3, -0.07 -0.12" stroke="#1e1e1e" stroke-width="2" fill="none"></path></g><g transform="translate(357.6542663574218 559.2345886230468) rotate(0 119.47589093543534 0.9660609413779753)"><path d="M210.65 11.89 C221.64 7.93, 233.23 4.05, 238.91 1.82 M210.65 11.89 C220.61 8.26, 230.35 4.85, 238.91 1.82" stroke="#1e1e1e" stroke-width="2" fill="none"></path></g><g transform="translate(357.6542663574218 559.2345886230468) rotate(0 119.47589093543534 0.9660609413779753)"><path d="M210.79 -8.63 C221.73 -4.45, 233.27 -0.17, 238.91 1.82 M210.79 -8.63 C220.68 -5.08, 230.37 -1.31, 238.91 1.82" stroke="#1e1e1e" stroke-width="2" fill="none"></path></g></g><mask></mask><g stroke-linecap="round"><g transform="translate(2145.3085327148433 531.5802714029948) rotate(0 -115.52722527392154 -0.9645516538809034)"><path d="M0.01 -0.1 C-38.47 -0.44, -192.49 -1.55, -231 -1.88 M-0.16 0.17 C-38.65 -0.15, -192.58 -1.74, -231.07 -2.1" stroke="#1e1e1e" stroke-width="2" fill="none"></path></g><g transform="translate(2145.3085327148433 531.5802714029948) rotate(0 -115.52722527392154 -0.9645516538809034)"><path d="M-28.26 9.94 C-21.83 7.79, -14.81 5.36, 0.01 -0.1 M-28.26 9.94 C-21.84 7.75, -15.29 5.19, 0.01 -0.1" stroke="#1e1e1e" stroke-width="2" fill="none"></path></g><g transform="translate(2145.3085327148433 531.5802714029948) rotate(0 -115.52722527392154 -0.9645516538809034)"><path d="M-28.1 -10.58 C-21.68 -7.91, -14.7 -5.52, 0.01 -0.1 M-28.1 -10.58 C-21.69 -8.08, -15.17 -5.96, 0.01 -0.1" stroke="#1e1e1e" stroke-width="2" fill="none"></path></g><g transform="translate(2145.3085327148433 531.5802714029948) rotate(0 -115.52722527392154 -0.9645516538809034)"><path d="M-202.78 -12.08 C-209.6 -9.52, -215.87 -7.25, -231.07 -2.1 M-202.78 -12.08 C-209.26 -9.63, -215.63 -7.62, -231.07 -2.1" stroke="#1e1e1e" stroke-width="2" fill="none"></path></g><g transform="translate(2145.3085327148433 531.5802714029948) rotate(0 -115.52722527392154 -0.9645516538809034)"><path d="M-202.98 8.44 C-209.79 6.18, -216 3.63, -231.07 -2.1 M-202.98 8.44 C-209.44 6.2, -215.77 3.52, -231.07 -2.1" stroke="#1e1e1e" stroke-width="2" fill="none"></path></g></g><mask></mask><g stroke-linecap="round"><g transform="translate(1054.938252766927 452.56792195638) rotate(0 196.53518100775312 1.0030888109347984)"><path d="M0.06 -0.02 C65.59 0.33, 327.67 1.62, 393.17 1.97 M-0.1 -0.15 C65.42 0.22, 327.58 1.83, 393.09 2.16" stroke="#1e1e1e" stroke-width="2" fill="none"></path></g><g transform="translate(1054.938252766927 452.56792195638) rotate(0 196.53518100775312 1.0030888109347984)"><path d="M28.3 -10.13 C20.16 -7.06, 12.07 -4.38, 0.06 -0.02 M28.3 -10.13 C17.94 -6.39, 7.62 -2.8, 0.06 -0.02" stroke="#1e1e1e" stroke-width="2" fill="none"></path></g><g transform="translate(1054.938252766927 452.56792195638) rotate(0 196.53518100775312 1.0030888109347984)"><path d="M28.19 10.39 C20.1 7.57, 12.04 4.36, 0.06 -0.02 M28.19 10.39 C17.89 6.66, 7.61 2.77, 0.06 -0.02" stroke="#1e1e1e" stroke-width="2" fill="none"></path></g><g transform="translate(1054.938252766927 452.56792195638) rotate(0 196.53518100775312 1.0030888109347984)"><path d="M364.84 12.26 C372.93 9.5, 381.05 6.38, 393.09 2.16 M364.84 12.26 C375.08 8.71, 385.33 4.93, 393.09 2.16" stroke="#1e1e1e" stroke-width="2" fill="none"></path></g><g transform="translate(1054.938252766927 452.56792195638) rotate(0 196.53518100775312 1.0030888109347984)"><path d="M364.96 -8.26 C372.99 -5.13, 381.09 -2.36, 393.09 2.16 M364.96 -8.26 C375.13 -4.33, 385.34 -0.64, 393.09 2.16" stroke="#1e1e1e" stroke-width="2" fill="none"></path></g></g><mask></mask><g stroke-linecap="round"><g transform="translate(817.9012044270833 93.06174723307288) rotate(0 1.0214247620555739 79.92662355981776)"><path d="M-0.14 -0.12 C0.16 26.52, 1.54 133.15, 1.89 159.85 M0.06 0.15 C0.41 26.8, 1.88 133.36, 2.18 159.97" stroke="#1e1e1e" stroke-width="2" fill="none"></path></g><g transform="translate(817.9012044270833 93.06174723307288) rotate(0 1.0214247620555739 79.92662355981776)"><path d="M10.47 27.94 C6.56 18.03, 2.82 8.46, -0.14 -0.12 M10.47 27.94 C6.82 17.98, 2.95 8.28, -0.14 -0.12" stroke="#1e1e1e" stroke-width="2" fill="none"></path></g><g transform="translate(817.9012044270833 93.06174723307288) rotate(0 1.0214247620555739 79.92662355981776)"><path d="M-10.05 28.2 C-6.85 18.22, -3.47 8.57, -0.14 -0.12 M-10.05 28.2 C-6.51 18.12, -3.18 8.33, -0.14 -0.12" stroke="#1e1e1e" stroke-width="2" fill="none"></path></g><g transform="translate(817.9012044270833 93.06174723307288) rotate(0 1.0214247620555739 79.92662355981776)"><path d="M-8.44 131.91 C-4.97 141.49, -1.35 151.4, 2.18 159.97 M-8.44 131.91 C-4.72 141.6, -1.15 151.57, 2.18 159.97" stroke="#1e1e1e" stroke-width="2" fill="none"></path></g><g transform="translate(817.9012044270833 93.06174723307288) rotate(0 1.0214247620555739 79.92662355981776)"><path d="M12.08 131.65 C8.43 141.29, 4.94 151.29, 2.18 159.97 M12.08 131.65 C8.61 141.45, 4.99 151.52, 2.18 159.97" stroke="#1e1e1e" stroke-width="2" fill="none"></path></g></g><mask></mask></svg>