<svg version="1.1" xmlns="http://www.w3.org/2000/svg" viewBox="0 0 1573.7774963378906 1016.9813079833984" width="1573.7774963378906" height="1016.9813079833984">
  <!-- svg-source:excalidraw -->
  
  <defs>
    <style class="style-fonts">
      @font-face {
        font-family: "Virgil";
        src: url("https://excalidraw.com/Virgil.woff2");
      }
      @font-face {
        font-family: "Cascadia";
        src: url("https://excalidraw.com/Cascadia.woff2");
      }
    </style>
    
  </defs>
  <g stroke-linecap="round" transform="translate(10 293.25921630859375) rotate(0 146.37034606933594 151.70370483398438)"><path d="M32 0 C101.97 0.11, 168.24 2.82, 260.74 0 C280.54 -2.87, 289.74 13.83, 292.74 32 C288.81 89.46, 287.76 151.26, 292.74 271.41 C295.28 291.57, 282.58 302.63, 260.74 303.41 C196.75 302.79, 129.8 303.85, 32 303.41 C8.47 301.91, -1.46 291.71, 0 271.41 C-1.52 223.09, -1.76 172.02, 0 32 C1.25 8.26, 10.86 2.6, 32 0" stroke="none" stroke-width="0" fill="#e7f5ff"></path><path d="M32 0 C87.27 2.19, 142.25 2.69, 260.74 0 M32 0 C109.5 -1.04, 186.13 -1.15, 260.74 0 M260.74 0 C280.1 -1.71, 293.61 11.38, 292.74 32 M260.74 0 C281.23 0, 294.12 11.81, 292.74 32 M292.74 32 C292.34 119.52, 290.78 206.57, 292.74 271.41 M292.74 32 C294.8 84.03, 293.87 137.23, 292.74 271.41 M292.74 271.41 C291.35 291.08, 284.03 304.94, 260.74 303.41 M292.74 271.41 C291.63 292.08, 282.72 304.67, 260.74 303.41 M260.74 303.41 C182.26 305.03, 101.32 305.32, 32 303.41 M260.74 303.41 C180.64 304.23, 102.06 302.91, 32 303.41 M32 303.41 C10.94 305.18, -0.87 291.39, 0 271.41 M32 303.41 C12.58 301.84, 1.9 293.52, 0 271.41 M0 271.41 C1.09 179.82, -0.51 83.47, 0 32 M0 271.41 C-2.44 197.11, -2.11 121.88, 0 32 M0 32 C-0.32 10.99, 9.49 1.48, 32 0 M0 32 C-0.67 9.08, 9.21 -2.13, 32 0" stroke="#1e1e1e" stroke-width="4" fill="none"></path></g><g transform="translate(66.3883285522461 422.4629211425781) rotate(0 89.98201751708984 22.5)"><text x="89.98201751708984" y="0" font-family="Virgil, Segoe UI Emoji" font-size="36px" fill="#1e1e1e" text-anchor="middle" style="white-space: pre;" direction="ltr" dominant-baseline="text-before-edge">Mobile App</text></g><g stroke-linecap="round" transform="translate(642.8887023925781 286.1480407714844) rotate(0 151.70367431640625 162.37037658691406)"><path d="M32 0 C122.99 2.84, 212.97 0.66, 271.41 0 C291.34 -3.56, 302.12 8.07, 303.41 32 C305.99 118.03, 304.56 209.1, 303.41 292.74 C304.75 315.65, 293.11 325.37, 271.41 324.74 C192.82 328.54, 115.69 324.52, 32 324.74 C11.66 327.42, 2.4 316.84, 0 292.74 C-0.35 232.66, -2.61 171.68, 0 32 C-1.14 10.36, 7.98 0.56, 32 0" stroke="none" stroke-width="0" fill="#ebfbee"></path><path d="M32 0 C104.1 -3.17, 176.24 -0.38, 271.41 0 M32 0 C90.08 -0.05, 148.06 0.93, 271.41 0 M271.41 0 C294.15 -0.65, 303.69 10.23, 303.41 32 M271.41 0 C292.43 -0.43, 301.7 11.83, 303.41 32 M303.41 32 C302.52 126.42, 302.85 221.7, 303.41 292.74 M303.41 32 C304.14 87.18, 304.08 141.62, 303.41 292.74 M303.41 292.74 C304.1 312.74, 292.85 326.18, 271.41 324.74 M303.41 292.74 C302.88 316.13, 293 326.62, 271.41 324.74 M271.41 324.74 C219.66 325.09, 164.45 325.88, 32 324.74 M271.41 324.74 C216.74 326.04, 161.14 326, 32 324.74 M32 324.74 C12.09 323.85, 0.48 315.74, 0 292.74 M32 324.74 C10.66 325.67, 0.03 314.76, 0 292.74 M0 292.74 C-1.66 202.85, -0.31 114.53, 0 32 M0 292.74 C-2.17 199.04, -1.01 104.8, 0 32 M0 32 C1.95 9.53, 9.91 -1.67, 32 0 M0 32 C-1.68 11.38, 9.66 1.74, 32 0" stroke="#1e1e1e" stroke-width="4" fill="none"></path></g><g transform="translate(738.4683609008789 426.01841735839844) rotate(0 56.12401580810547 22.5)"><text x="56.12401580810547" y="0" font-family="Virgil, Segoe UI Emoji" font-size="36px" fill="#1e1e1e" text-anchor="middle" style="white-space: pre;" direction="ltr" dominant-baseline="text-before-edge">Device</text></g><g stroke-linecap="round" transform="translate(1214.1478576660156 255.3331298828125) rotate(0 174.8148193359375 187.25924682617188)"><path d="M32 0 C122.85 -0.05, 215.62 -1.84, 317.63 0 C336.5 -3.08, 349.33 7.94, 349.63 32 C345 150.71, 346.92 266.1, 349.63 342.52 C350.45 364.08, 340.04 376.3, 317.63 374.52 C219.82 374.48, 127.1 371.32, 32 374.52 C10.45 371.58, -0.99 360.68, 0 342.52 C2.97 273.97, 3.68 209.73, 0 32 C0.11 7.49, 11.07 -2.6, 32 0" stroke="none" stroke-width="0" fill="#fff9db"></path><path d="M32 0 C117.5 -0.44, 203.49 0.52, 317.63 0 M32 0 C126.9 1.49, 221.66 1.64, 317.63 0 M317.63 0 C340.43 -1.89, 349.79 9.9, 349.63 32 M317.63 0 C336.68 0.67, 350.24 8.44, 349.63 32 M349.63 32 C350.4 121.46, 348.6 208.11, 349.63 342.52 M349.63 32 C350.21 144.12, 350.86 255.68, 349.63 342.52 M349.63 342.52 C347.78 362.73, 338.18 375.16, 317.63 374.52 M349.63 342.52 C348.83 362.68, 340.41 376.16, 317.63 374.52 M317.63 374.52 C239.42 375.26, 160.82 373.15, 32 374.52 M317.63 374.52 C251.63 373.96, 186.64 373.4, 32 374.52 M32 374.52 C12.11 375.53, -1.38 365.51, 0 342.52 M32 374.52 C9.86 373.31, 0.02 365.73, 0 342.52 M0 342.52 C-1.28 278.69, -0.68 215.34, 0 32 M0 342.52 C1.25 254.57, 2.04 166.26, 0 32 M0 32 C-1.94 11.53, 11.13 0.71, 32 0 M0 32 C-0.48 9.34, 8.4 -1.32, 32 0" stroke="#1e1e1e" stroke-width="4" fill="none"></path></g><g transform="translate(1342.1986618041992 420.0923767089844) rotate(0 46.764015197753906 22.5)"><text x="46.764015197753906" y="0" font-family="Virgil, Segoe UI Emoji" font-size="36px" fill="#1e1e1e" text-anchor="middle" style="white-space: pre;" direction="ltr" dominant-baseline="text-before-edge">Cloud</text></g><g stroke-linecap="round"><g transform="translate(313.4073181152344 442.59259033203125) rotate(0 160.55717390943954 1.8533498087154499)"><path d="M-0.14 0.15 C53.42 0.76, 267.69 3.05, 321.25 3.61 M0.07 0.09 C53.62 0.65, 267.65 2.78, 321.17 3.37" stroke="#1e1e1e" stroke-width="2" fill="none"></path></g><g transform="translate(313.4073181152344 442.59259033203125) rotate(0 160.55717390943954 1.8533498087154499)"><path d="M292.87 13.34 C299.8 11.17, 306.27 8.82, 321.17 3.37 M292.87 13.34 C300.61 10.65, 308.29 8.03, 321.17 3.37" stroke="#1e1e1e" stroke-width="2" fill="none"></path></g><g transform="translate(313.4073181152344 442.59259033203125) rotate(0 160.55717390943954 1.8533498087154499)"><path d="M293.08 -7.18 C299.96 -4.53, 306.38 -2.07, 321.17 3.37 M293.08 -7.18 C300.75 -4.3, 308.37 -1.36, 321.17 3.37" stroke="#1e1e1e" stroke-width="2" fill="none"></path></g></g><mask></mask><g stroke-linecap="round"><g transform="translate(953.4072570800781 442.1458675138422) rotate(0 129.7806819648721 1.6537462236798888)"><path d="M0.04 0.02 C43.31 0.55, 216.45 2.68, 259.68 3.24 M-0.12 -0.1 C43.13 0.45, 216.31 2.87, 259.62 3.41" stroke="#1e1e1e" stroke-width="2" fill="none"></path></g><g transform="translate(953.4072570800781 442.1458675138422) rotate(0 129.7806819648721 1.6537462236798888)"><path d="M28.36 -9.89 C18.11 -6.03, 7.66 -2.92, 0.04 0.02 M28.36 -9.89 C18.56 -6.6, 8.76 -3.12, 0.04 0.02" stroke="#1e1e1e" stroke-width="2" fill="none"></path></g><g transform="translate(953.4072570800781 442.1458675138422) rotate(0 129.7806819648721 1.6537462236798888)"><path d="M28.11 10.63 C17.93 7.02, 7.58 2.67, 0.04 0.02 M28.11 10.63 C18.39 6.84, 8.67 3.24, 0.04 0.02" stroke="#1e1e1e" stroke-width="2" fill="none"></path></g><g transform="translate(953.4072570800781 442.1458675138422) rotate(0 129.7806819648721 1.6537462236798888)"><path d="M231.3 13.29 C241.64 9.92, 251.81 5.83, 259.62 3.41 M231.3 13.29 C241.03 9.78, 250.77 6.43, 259.62 3.41" stroke="#1e1e1e" stroke-width="2" fill="none"></path></g><g transform="translate(953.4072570800781 442.1458675138422) rotate(0 129.7806819648721 1.6537462236798888)"><path d="M231.57 -7.23 C241.83 -3.13, 251.89 0.24, 259.62 3.41 M231.57 -7.23 C241.21 -3.66, 250.86 0.07, 259.62 3.41" stroke="#1e1e1e" stroke-width="2" fill="none"></path></g></g><mask></mask><g stroke-linecap="round"><g transform="translate(319.3332214355469 119.03704833984375) rotate(0 75.52945405629225 157.73773989806088)"><path d="M-0.03 -1.05 C22.91 3.55, 111.66 -24.79, 136.86 28.71 C162.05 82.22, 148.77 271.74, 151.16 319.99 M-1.51 1.01 C21.39 6.26, 110.83 -23.11, 136.2 29.77 C161.58 82.64, 148.13 270.06, 150.73 318.26" stroke="#e03131" stroke-width="4" fill="none"></path></g><g transform="translate(319.3332214355469 119.03704833984375) rotate(0 75.52945405629225 157.73773989806088)"><path d="M140.66 290 C141.54 297.61, 144.14 304.42, 150.73 318.26 M140.66 290 C143.83 302.23, 148.43 312.84, 150.73 318.26" stroke="#e03131" stroke-width="4" fill="none"></path></g><g transform="translate(319.3332214355469 119.03704833984375) rotate(0 75.52945405629225 157.73773989806088)"><path d="M161.18 290.14 C157.22 297.72, 154.97 304.49, 150.73 318.26 M161.18 290.14 C156.19 302.21, 152.63 312.76, 150.73 318.26" stroke="#e03131" stroke-width="4" fill="none"></path></g></g><mask></mask><g transform="translate(101.2591552734375 10) rotate(0 103.10404205322266 112.5)"><text x="0" y="0" font-family="Virgil, Segoe UI Emoji" font-size="36px" fill="#1e1e1e" text-anchor="start" style="white-space: pre;" direction="ltr" dominant-baseline="text-before-edge">Control</text><text x="0" y="45" font-family="Virgil, Segoe UI Emoji" font-size="36px" fill="#1e1e1e" text-anchor="start" style="white-space: pre;" direction="ltr" dominant-baseline="text-before-edge">- modes</text><text x="0" y="90" font-family="Virgil, Segoe UI Emoji" font-size="36px" fill="#1e1e1e" text-anchor="start" style="white-space: pre;" direction="ltr" dominant-baseline="text-before-edge">- brightness</text><text x="0" y="135" font-family="Virgil, Segoe UI Emoji" font-size="36px" fill="#1e1e1e" text-anchor="start" style="white-space: pre;" direction="ltr" dominant-baseline="text-before-edge">- colour</text><text x="0" y="180" font-family="Virgil, Segoe UI Emoji" font-size="36px" fill="#1e1e1e" text-anchor="start" style="white-space: pre;" direction="ltr" dominant-baseline="text-before-edge">- speed</text></g><g transform="translate(1252.0069198608398 691.9813079833984) rotate(0 151.45205688476562 157.5)"><text x="0" y="0" font-family="Virgil, Segoe UI Emoji" font-size="36px" fill="#1e1e1e" text-anchor="start" style="white-space: pre;" direction="ltr" dominant-baseline="text-before-edge">- Certificate</text><text x="0" y="45" font-family="Virgil, Segoe UI Emoji" font-size="36px" fill="#1e1e1e" text-anchor="start" style="white-space: pre;" direction="ltr" dominant-baseline="text-before-edge">management</text><text x="0" y="90" font-family="Virgil, Segoe UI Emoji" font-size="36px" fill="#1e1e1e" text-anchor="start" style="white-space: pre;" direction="ltr" dominant-baseline="text-before-edge">- Traffic update</text><text x="0" y="135" font-family="Virgil, Segoe UI Emoji" font-size="36px" fill="#1e1e1e" text-anchor="start" style="white-space: pre;" direction="ltr" dominant-baseline="text-before-edge">- Provisioning</text><text x="0" y="180" font-family="Virgil, Segoe UI Emoji" font-size="36px" fill="#1e1e1e" text-anchor="start" style="white-space: pre;" direction="ltr" dominant-baseline="text-before-edge">- OTA Updates</text><text x="0" y="225" font-family="Virgil, Segoe UI Emoji" font-size="36px" fill="#1e1e1e" text-anchor="start" style="white-space: pre;" direction="ltr" dominant-baseline="text-before-edge">- Communication</text><text x="0" y="270" font-family="Virgil, Segoe UI Emoji" font-size="36px" fill="#1e1e1e" text-anchor="start" style="white-space: pre;" direction="ltr" dominant-baseline="text-before-edge"></text></g><g stroke-linecap="round"><g transform="translate(1227.1850891113281 842) rotate(0 -77.18376002623233 -193.0013755686581)"><path d="M0.33 0.02 C-20.38 -8.48, -99.12 13.94, -124.83 -50.4 C-150.55 -114.74, -149.08 -330.23, -153.98 -386.02 M-0.96 -1.02 C-21.7 -9.42, -99.74 14.83, -125.36 -49.19 C-150.99 -113.21, -149.92 -329.33, -154.7 -385.14" stroke="#e03131" stroke-width="4" fill="none"></path></g><g transform="translate(1227.1850891113281 842) rotate(0 -77.18376002623233 -193.0013755686581)"><path d="M-143.25 -357.41 C-146.23 -363.01, -150.17 -371.14, -154.7 -385.14 M-143.25 -357.41 C-145.14 -363.81, -148.71 -371.09, -154.7 -385.14" stroke="#e03131" stroke-width="4" fill="none"></path></g><g transform="translate(1227.1850891113281 842) rotate(0 -77.18376002623233 -193.0013755686581)"><path d="M-163.76 -356.55 C-161.59 -362.42, -160.39 -370.76, -154.7 -385.14 M-163.76 -356.55 C-160.92 -363.15, -159.77 -370.63, -154.7 -385.14" stroke="#e03131" stroke-width="4" fill="none"></path></g></g><mask></mask></svg>